<?xml version="1.0" standalone="no"?>
<!DOCTYPE svg PUBLIC "-//W3C//DTD SVG 20010904//EN"
 "http://www.w3.org/TR/2001/REC-SVG-20010904/DTD/svg10.dtd">
<svg version="1.0" xmlns="http://www.w3.org/2000/svg"
 width="128.000000pt" height="128.000000pt" viewBox="0 0 128.000000 128.000000"
 preserveAspectRatio="xMidYMid meet">

<g transform="translate(0.000000,128.000000) scale(0.100000,-0.100000)"
fill="#000000" stroke="none">
<path d="M500 1265 c-109 -24 -224 -88 -310 -175 -253 -252 -253 -648 0 -900
252 -253 648 -253 900 0 253 252 253 648 0 900 -156 157 -373 221 -590 175z
m285 -80 c92 -24 174 -73 250 -150 116 -115 165 -234 165 -398 0 -87 -17 -170
-47 -232 -19 -39 -76 -125 -83 -125 -4 0 -12 17 -19 37 -32 92 -119 192 -206
235 -22 11 -42 22 -44 24 -2 2 13 22 34 45 50 56 68 102 69 179 1 116 -63 210
-171 250 -68 25 -118 25 -186 0 -108 -40 -172 -134 -171 -250 1 -77 19 -123
69 -179 21 -23 36 -43 34 -45 -2 -2 -20 -11 -39 -21 -88 -44 -179 -147 -211
-237 -7 -21 -15 -38 -19 -38 -7 0 -64 86 -83 125 -47 97 -61 265 -32 380 48
182 215 350 396 399 72 20 220 20 294 1z m-57 -214 c67 -34 102 -93 102 -171
0 -53 -23 -112 -57 -142 -68 -62 -198 -62 -266 0 -74 67 -74 219 -1 283 59 51
155 64 222 30z m-16 -452 c78 -17 137 -50 191 -108 54 -57 86 -121 90 -176 2
-35 -1 -38 -63 -76 -97 -59 -155 -74 -290 -74 -135 0 -193 15 -290 74 -61 37
-65 42 -63 73 7 118 132 251 267 284 66 16 93 16 158 3z"/>
</g>
</svg>
